<?xml version="1.0" encoding="utf-8"?>
<!-- Generator: Adobe Illustrator 18.0.0, SVG Export Plug-In . SVG Version: 6.00 Build 0)  -->
<!DOCTYPE svg PUBLIC "-//W3C//DTD SVG 1.1//EN" "http://www.w3.org/Graphics/SVG/1.1/DTD/svg11.dtd">
<svg version="1.1" xmlns="http://www.w3.org/2000/svg" xmlns:xlink="http://www.w3.org/1999/xlink" x="0px" y="0px"
	 viewBox="0 0 92.5 14.6" enable-background="new 0 0 92.5 14.6" xml:space="preserve">
<g id="grid">
</g>
<g id="_x32_4_Grid_Col_1_">
	<g>
		<polygon fill="#35A8E0" points="7.6,0 10.6,4 15.3,5.6 12.4,9.6 12.4,14.6 7.6,13.1 2.9,14.6 2.9,9.6 0,5.6 4.7,4 		"/>
		<polygon fill="#35A8E0" points="26.6,0 29.5,4 34.2,5.6 31.3,9.6 31.3,14.6 26.6,13.1 21.8,14.6 21.8,9.6 18.9,5.6 23.6,4 		"/>
		<polygon fill="#35A8E0" points="45.8,0 48.8,4 53.5,5.6 50.6,9.6 50.6,14.6 45.8,13.1 41.1,14.6 41.1,9.6 38.2,5.6 42.9,4 		"/>
		<polygon fill="#35A8E0" points="65.7,0 68.7,4 73.4,5.6 70.5,9.6 70.5,14.6 65.7,13.1 61,14.6 61,9.6 58.1,5.6 62.8,4 		"/>
		<g>
			<polygon fill="#FFFFFF" points="84.8,12.5 80.6,13.9 80.6,9.4 78,5.8 82.2,4.4 84.8,0.8 87.5,4.4 91.7,5.8 89.1,9.4 89.1,13.9 
							"/>
			<path fill="#C6C6C5" d="M84.8,1.7L87,4.6l0.2,0.3l0.3,0.1l3.4,1.1L88.8,9l-0.2,0.3l0,0.3l0,3.6l-3.4-1.1L84.8,12l-0.3,0.1
				l-3.4,1.1l0-3.6l0-0.3L80.9,9l-2.1-2.9l3.4-1.1l0.3-0.1l0.2-0.3L84.8,1.7 M84.8,0l-2.9,4l-4.7,1.6l2.9,4l0,5l4.7-1.5l4.7,1.5l0-5
				l2.9-4L87.8,4L84.8,0L84.8,0z"/>
		</g>
	</g>
</g>
</svg>
